<?xml version="1.0" standalone="no"?>
<!DOCTYPE svg PUBLIC "-//W3C//DTD SVG 20010904//EN"
 "http://www.w3.org/TR/2001/REC-SVG-20010904/DTD/svg10.dtd">
<svg version="1.0" xmlns="http://www.w3.org/2000/svg"
 width="1500.000000pt" height="1500.000000pt" viewBox="0 0 1500.000000 1500.000000"
 preserveAspectRatio="xMidYMid meet">
<metadata>
Created by potrace 1.14, written by Peter Selinger 2001-2017
</metadata>
<g transform="translate(0.000000,1500.000000) scale(0.100000,-0.100000)"
fill="#000000" stroke="none">
<path d="M7148 12875 c-2 -2 -64 -6 -138 -9 -74 -3 -146 -8 -160 -10 -14 -3
-54 -7 -90 -11 -36 -4 -83 -8 -105 -11 -40 -4 -163 -21 -220 -30 -16 -3 -41
-7 -55 -9 -22 -3 -180 -34 -205 -39 -5 -2 -28 -6 -50 -10 -22 -5 -67 -15 -100
-23 -33 -8 -68 -17 -77 -18 -10 -2 -62 -16 -115 -30 -513 -138 -1021 -355
-1483 -633 -110 -66 -368 -235 -410 -269 -8 -6 -79 -60 -156 -120 -333 -254
-656 -567 -926 -893 -558 -677 -959 -1466 -1168 -2300 -23 -94 -59 -249 -64
-280 -3 -19 -8 -46 -11 -60 -12 -58 -45 -269 -50 -319 -3 -29 -7 -56 -9 -60
-2 -3 -7 -44 -11 -91 -3 -47 -8 -98 -10 -115 -25 -197 -24 -839 0 -1025 3 -19
7 -60 10 -90 10 -103 16 -145 36 -280 22 -144 57 -331 84 -445 9 -38 18 -77
20 -85 36 -175 193 -643 290 -865 271 -622 591 -1126 1033 -1625 37 -41 137
-145 222 -230 177 -176 228 -223 408 -373 503 -418 1096 -758 1717 -984 133
-49 344 -119 385 -128 8 -2 50 -13 92 -25 43 -11 85 -23 95 -25 10 -1 45 -10
78 -18 52 -14 233 -52 290 -62 11 -2 49 -9 85 -15 36 -7 78 -14 93 -16 15 -2
46 -6 67 -9 22 -3 58 -7 80 -10 22 -3 57 -7 78 -10 20 -2 69 -7 107 -11 39 -3
88 -8 110 -10 201 -20 687 -19 895 1 25 3 77 7 115 10 39 3 84 7 100 10 17 2
53 7 80 10 28 3 61 7 75 10 14 2 43 7 65 10 121 17 189 29 340 62 242 52 413
98 635 172 937 313 1795 872 2470 1611 140 153 423 510 476 599 10 17 22 31
26 31 4 0 8 4 8 8 0 5 31 55 69 113 172 262 402 701 506 964 26 66 55 138 64
160 18 40 123 361 160 490 54 184 131 555 156 754 4 30 8 63 10 73 2 11 7 49
10 86 4 37 8 78 10 92 4 25 12 134 21 280 5 88 5 476 0 570 -8 130 -17 266
-21 290 -2 14 -6 54 -10 90 -3 36 -10 90 -15 120 -5 30 -12 77 -15 104 -3 27
-8 59 -10 70 -6 25 -13 67 -21 116 -3 19 -7 41 -10 49 -2 8 -7 30 -10 50 -10
69 -76 337 -115 469 -75 254 -185 553 -274 748 -43 93 -169 348 -189 384 -8
14 -50 86 -92 160 -234 410 -547 819 -900 1176 -147 149 -312 302 -409 379
-27 22 -56 46 -63 53 -8 7 -30 25 -50 40 -21 15 -39 29 -42 33 -3 3 -32 25
-65 50 -33 24 -62 46 -65 49 -7 9 -131 94 -245 170 -373 250 -849 485 -1295
642 -293 103 -618 187 -945 243 -93 16 -255 38 -375 50 -30 3 -71 8 -90 10
-114 13 -721 30 -732 20z"/>
</g>
</svg>
